<?xml version="1.0" encoding="UTF-8"?>
<svg id="Capa_1" data-name="Capa 1" xmlns="http://www.w3.org/2000/svg" viewBox="0 0 156.3 201.52">
  <defs>
    <style>
      .cls-1 {
        font-family: CourierNewPSMT, 'Courier New';
        font-size: 15.54px;
        letter-spacing: .1em;
      }

      .cls-1, .cls-2 {
        fill: #ad8a1e;
      }

      .cls-3 {
        fill: #d9a522;
      }
    </style>
  </defs>
  <g>
    <path class="cls-2" d="m100.4,155.26v-4.45c8.8,0,13.21-3.06,13.21-9.19,0-1.75-.39-3.72-1.18-5.9l-14.27-42.64h-49.3l-10.48,30.84c-2.62,7.79-3.93,13.43-3.93,16.92,0,6.47,4.05,9.8,12.14,9.97v4.45H6.92v-4.45c5.68-.79,10.09-2.67,13.23-5.64,3.15-2.98,6.33-9.14,9.57-18.5L72.19,0h15.8l44.59,132.31c2.62,7.79,5.35,12.81,8.19,15.09,2.84,2.28,7.4,3.41,13.69,3.41v4.45h-54.07Zm-48.69-71.61h43.3l-21.77-65.07-21.53,65.07Z"/>
    <path class="cls-3" d="m144.45,51.6c.27.32.46.47.56.67,1.55,3.04,3.16,6.05,4.6,9.13,2.51,5.35,4.07,11,5.23,16.78,1.56,7.84,1.8,15.75,1.03,23.67-1.2,12.33-5.12,23.75-11.82,34.19-4.24,6.62-9.24,12.6-15.22,17.74-7.12,6.12-15.09,10.8-23.89,14.09-11.03,4.12-22.4,5.28-34.08,4.34-9.78-.79-19.01-3.44-27.72-7.94-.59-.31-1.2-.58-1.8-.87-.02-.01-.03-.06-.11-.26,1.74-.19,3.44-.39,5.14-.54,4.21-.36,8.42-.76,12.64-1.01,1.6-.1,3.25-.01,4.82.29,8.27,1.6,16.55,1.94,24.89.6,13.29-2.14,24.91-7.75,35-16.61,6.08-5.33,10.89-11.67,14.78-18.71,2.74-4.95,4.84-10.17,6.23-15.64,2.16-8.47,2.86-17.07,1.87-25.77-.82-7.25-2.61-14.25-5.64-20.9-.58-1.28-.37-2.32.14-3.59,1.14-2.83,2.02-5.76,3-8.65.1-.28.18-.56.32-1.01Z"/>
    <path class="cls-3" d="m12.8,137.7c-1.93-3.63-3.82-6.95-5.5-10.39-3.3-6.75-5.35-13.92-6.51-21.32-.42-2.67-.67-5.39-.71-8.1-.08-5.1-.24-10.22.5-15.3,1.02-7.04,2.86-13.85,5.65-20.39,5.01-11.75,12.49-21.67,22.28-29.86,7.09-5.93,15.03-10.42,23.77-13.44,2.62-.9,5.33-1.57,8.01-2.29.5-.13,1.07.02,1.61.03-.09.47-.13.96-.29,1.4-.89,2.45-1.87,4.86-2.71,7.33-.31.9-.79,1.33-1.69,1.64-9.9,3.37-18.81,8.42-26.36,15.72-4.58,4.42-8.65,9.26-11.88,14.77-5.02,8.58-8.19,17.77-9.41,27.67-1.38,11.21.09,22.05,3.81,32.63.66,1.88,1.56,3.68,2.38,5.5.61,1.34,1.35,2.62,1.87,3.98.22.6.22,1.45-.03,2.03-1.02,2.31-2.15,4.59-3.31,6.83-.28.54-.86.93-1.45,1.54Z"/>
    <path class="cls-3" d="m35.89,99.02c1.07-.08,2.13-.18,3.2-.23,7.01-.28,13.99-.89,20.92-1.98,11.23-1.76,22.21-4.46,32.63-9.13,6.33-2.83,12.29-6.3,17.49-10.93,4.27-3.8,7.88-8.15,10.41-13.32,2.39-4.88,3.5-9.99,2.36-15.37-1.1-5.17-3.94-9.33-8-12.71-3.95-3.29-8.43-5.6-13.19-7.43-1.04-.4-1.64-1.01-2.01-2.07-.84-2.39-1.81-4.73-2.71-7.1-.21-.55-.61-1.87-.61-1.87,0,0,.97.02,1.35.11,6.94,1.67,13.41,4.42,19.35,8.43,3.77,2.54,7.19,5.47,9.91,9.09,4.15,5.53,6.64,11.69,6.74,18.75.12,8.27-2.72,15.44-7.73,21.84-6.04,7.71-13.92,12.95-22.79,16.84-5.24,2.3-10.69,3.96-16.24,5.3-10.58,2.55-21.34,3.28-32.19,3.25-6.18-.02-12.32-.49-18.45-1.17-.16-.02-.31-.07-.46-.1,0-.07,0-.13.01-.2Z"/>
  </g>
  <text class="cls-1" transform="translate(18.33 190.96)"><tspan x="0" y="0">ESME STUDIO</tspan></text>
</svg>